<?xml version="1.0" encoding="UTF-8"?>
<svg width="53px" height="25px" viewBox="0 0 53 25" version="1.1" xmlns="http://www.w3.org/2000/svg" xmlns:xlink="http://www.w3.org/1999/xlink">
    <!-- Generator: Sketch 58 (84663) - https://sketch.com -->
    <title>logo</title>
    <desc>Created with Sketch.</desc>
    <g id="Symbols" stroke="none" stroke-width="1" fill="none" fill-rule="evenodd">
        <g id="Logo-Square" transform="translate(0.000000, -5.000000)" fill="#3657FF" fill-rule="nonzero">
            <g id="logo" transform="translate(0.000000, 5.000000)">
                <path d="M53,0.31336452 C52.3554846,1.5056168 51.2812922,3.39919395 49.7058101,5.99409598 C48.2735536,8.44873303 47.1993613,10.3423102 46.483233,11.7449599 C41.8283995,13.4281396 37.0303403,15.3217168 32.0174426,17.3555589 C32.1606682,17.7763538 32.8051836,18.4075462 33.879376,19.389401 C34.8819555,20.3011234 35.5264709,21.0024482 35.5980838,21.4933756 C34.4522786,21.8440381 32.8767965,22.4752305 30.9432502,23.2466878 C28.8664783,24.0882777 27.2909962,24.7194701 26.3600295,25 C23.4239037,23.6674827 20.4877779,22.5453629 17.4084265,21.4933756 C17.623265,20.9323157 18.1245547,20.3011234 19.0555214,19.4595335 C20.1297138,18.4776787 20.845842,17.7763538 21.1322933,17.3555589 C19.3419727,16.654234 16.9071367,15.7425117 13.8993981,14.5502594 C10.3187569,13.2177422 7.88392089,12.2358873 6.66650289,11.7449599 C2.08328215,3.96025385 -0.136715391,0.243232032 0.00651025673,0.453629494 C0.651025673,0.593894468 2.79941039,0.453629494 6.45166441,0.173099545 C9.88907997,-0.107430403 12.1090775,-0.0372979163 13.1832699,0.31336452 C13.6129468,0.453629494 14.1858494,1.01468939 14.9735905,1.99654421 C15.1884289,2.27707416 15.4748802,2.69786908 15.8329444,3.25892898 C16.1910085,3.74985639 16.4058469,4.10051883 16.5490726,4.31091629 C17.4800393,5.43303608 19.1987471,7.5370107 21.6335831,10.5527076 C23.7819678,13.1476097 25.3574499,15.1814518 26.4316423,16.5841015 C27.792286,14.9009218 30.0122835,12.1657548 33.0200221,8.44873303 C35.8845351,4.94210867 38.0329198,2.20694167 39.6084019,0.31336452 L53,0.31336452 L53,0.31336452 Z M26.2884167,14.8307894 C25.7871269,12.5865498 24.4264832,10.9033701 22.2064857,9.78125029 C25.9303525,10.4124427 28.7948655,10.3423102 30.6567989,9.64098531 C29.009704,10.6228401 27.5058347,12.3761523 26.2884167,14.8307894 L26.2884167,14.8307894 Z" id="svg_1"></path>
            </g>
        </g>
    </g>
</svg>