<svg id="svg" xmlns="http://www.w3.org/2000/svg" xmlns:xlink="http://www.w3.org/1999/xlink" width="400" height="82.01160541586074" viewBox="0, 0, 400,82.01160541586074"><g id="svgg"><path id="path0" d="M315.833 11.500 C 315.833 21.701,315.774 23.561,315.472 22.874 C 315.379 22.661,313.657 21.833,313.308 21.833 C 313.128 21.833,313.027 21.758,313.083 21.667 C 313.144 21.568,312.957 21.500,312.627 21.500 C 312.319 21.500,311.978 21.412,311.871 21.304 C 311.763 21.196,311.298 21.102,310.837 21.096 C 310.285 21.088,310.000 21.012,310.000 20.875 C 310.000 20.726,309.629 20.667,308.700 20.667 C 307.891 20.667,307.315 20.588,307.176 20.458 C 306.993 20.289,306.977 20.297,307.091 20.500 C 307.208 20.709,307.188 20.715,306.970 20.539 C 306.644 20.275,290.833 20.243,290.833 20.506 C 290.833 20.595,290.273 20.667,289.583 20.667 C 288.896 20.667,288.333 20.731,288.333 20.810 C 288.333 20.889,287.940 21.000,287.459 21.057 C 286.979 21.114,286.560 21.237,286.529 21.330 C 286.498 21.424,286.141 21.500,285.736 21.500 C 285.331 21.500,285.000 21.575,285.000 21.667 C 285.000 21.758,284.744 21.833,284.431 21.833 C 284.117 21.833,283.836 21.904,283.806 21.990 C 283.775 22.076,283.526 22.187,283.251 22.236 C 282.977 22.286,282.727 22.403,282.696 22.496 C 282.664 22.590,282.464 22.667,282.250 22.667 C 282.036 22.667,281.836 22.723,281.806 22.792 C 281.775 22.860,281.451 23.067,281.085 23.250 C 280.480 23.553,280.168 23.763,279.602 24.250 C 279.496 24.342,279.307 24.439,279.183 24.465 C 278.897 24.527,276.402 27.037,276.458 27.207 C 276.481 27.276,276.401 27.333,276.281 27.333 C 276.161 27.333,275.960 27.593,275.836 27.910 C 275.712 28.227,275.505 28.526,275.378 28.575 C 275.250 28.624,275.189 28.735,275.243 28.822 C 275.297 28.909,275.245 29.040,275.129 29.115 C 274.836 29.302,274.167 30.628,274.167 31.021 C 274.167 31.199,274.054 31.387,273.917 31.440 C 273.779 31.492,273.667 31.715,273.667 31.934 C 273.667 32.154,273.608 32.333,273.535 32.333 C 273.463 32.333,273.386 32.577,273.363 32.875 C 273.341 33.173,273.250 33.442,273.161 33.472 C 273.073 33.503,273.000 33.859,273.000 34.264 C 273.000 34.807,272.934 35.000,272.750 35.000 C 272.561 35.000,272.500 35.204,272.500 35.833 C 272.500 36.292,272.437 36.667,272.361 36.667 C 272.284 36.667,272.205 37.135,272.185 37.708 C 272.165 38.281,272.077 38.775,271.991 38.806 C 271.904 38.836,271.833 39.535,271.833 40.359 C 271.833 41.468,271.768 41.922,271.583 42.107 C 271.367 42.323,271.333 43.557,271.333 51.158 C 271.333 58.778,271.367 59.987,271.583 60.167 C 271.773 60.324,271.833 60.750,271.833 61.927 C 271.833 62.783,271.908 63.527,272.000 63.583 C 272.092 63.640,272.167 64.165,272.167 64.750 C 272.167 65.335,272.242 65.860,272.333 65.917 C 272.425 65.973,272.500 66.307,272.500 66.659 C 272.500 67.073,272.588 67.331,272.750 67.394 C 272.921 67.459,273.000 67.727,273.000 68.245 C 273.000 68.660,273.075 69.000,273.167 69.000 C 273.258 69.000,273.333 69.188,273.333 69.417 C 273.333 69.646,273.408 69.833,273.500 69.833 C 273.592 69.833,273.667 70.061,273.667 70.339 C 273.667 70.634,273.771 70.884,273.917 70.940 C 274.054 70.992,274.167 71.178,274.167 71.351 C 274.167 71.525,274.242 71.667,274.333 71.667 C 274.425 71.667,274.500 71.854,274.500 72.083 C 274.500 72.313,274.575 72.500,274.667 72.500 C 274.758 72.500,274.833 72.642,274.833 72.816 C 274.833 72.989,274.951 73.176,275.094 73.231 C 275.237 73.286,275.313 73.398,275.262 73.480 C 275.212 73.562,275.282 73.722,275.419 73.835 C 275.555 73.948,275.667 74.117,275.667 74.210 C 275.667 74.303,275.929 74.603,276.250 74.877 C 276.571 75.152,276.833 75.484,276.833 75.616 C 276.833 75.837,277.213 76.333,277.381 76.333 C 277.421 76.333,277.732 76.596,278.072 76.917 C 278.412 77.238,278.798 77.500,278.929 77.500 C 279.060 77.500,279.167 77.603,279.167 77.730 C 279.167 77.856,279.410 78.060,279.708 78.183 C 280.006 78.305,280.422 78.577,280.633 78.786 C 280.843 78.995,281.162 79.167,281.341 79.167 C 281.520 79.167,281.667 79.242,281.667 79.333 C 281.667 79.425,281.859 79.500,282.093 79.500 C 282.335 79.500,282.475 79.572,282.417 79.667 C 282.358 79.762,282.502 79.833,282.752 79.833 C 282.993 79.833,283.303 79.946,283.440 80.083 C 283.578 80.221,283.873 80.333,284.095 80.333 C 284.318 80.333,284.500 80.408,284.500 80.500 C 284.500 80.592,284.758 80.667,285.073 80.667 C 285.389 80.667,285.693 80.742,285.750 80.833 C 285.807 80.925,286.180 81.000,286.579 81.000 C 286.979 81.000,287.331 81.077,287.363 81.172 C 287.394 81.266,287.794 81.360,288.252 81.380 C 288.709 81.400,289.174 81.502,289.285 81.607 C 289.798 82.089,312.526 82.165,312.822 81.685 C 312.905 81.550,313.341 81.446,313.931 81.419 C 314.467 81.396,314.930 81.292,314.965 81.188 C 315.000 81.083,315.384 81.000,315.837 81.000 C 316.283 81.000,316.693 80.925,316.750 80.833 C 316.807 80.742,316.996 80.667,317.170 80.667 C 317.642 80.667,319.333 80.119,319.333 79.966 C 319.333 79.893,319.484 79.833,319.669 79.833 C 319.854 79.833,320.135 79.763,320.294 79.677 C 320.453 79.590,320.902 79.388,321.292 79.228 C 321.681 79.067,322.000 78.875,322.000 78.801 C 322.000 78.727,322.154 78.667,322.343 78.667 C 322.532 78.667,322.640 78.592,322.583 78.500 C 322.527 78.408,322.635 78.333,322.823 78.333 C 323.012 78.333,323.167 78.258,323.167 78.167 C 323.167 78.075,323.245 78.000,323.340 78.000 C 323.436 78.000,323.605 77.924,323.715 77.830 C 324.586 77.095,324.934 76.834,325.042 76.834 C 325.110 76.833,325.167 76.739,325.167 76.623 C 325.167 76.419,325.874 75.876,325.960 76.014 C 325.984 76.052,326.147 75.846,326.323 75.557 C 326.500 75.267,326.911 74.754,327.239 74.417 C 327.566 74.080,327.833 73.699,327.833 73.569 C 327.833 73.439,327.908 73.333,328.000 73.333 C 328.092 73.333,328.167 73.218,328.167 73.078 C 328.167 72.938,328.279 72.780,328.417 72.727 C 328.554 72.674,328.667 72.527,328.667 72.399 C 328.667 72.271,328.742 72.167,328.833 72.167 C 328.925 72.167,329.000 71.979,329.000 71.750 C 329.000 71.521,329.075 71.333,329.167 71.333 C 329.258 71.333,329.333 71.146,329.333 70.917 C 329.333 70.688,329.429 70.500,329.547 70.500 C 329.664 70.500,329.777 70.297,329.798 70.049 C 329.818 69.801,329.910 69.523,330.001 69.432 C 330.092 69.341,330.167 69.132,330.167 68.967 C 330.167 68.802,330.242 68.667,330.333 68.667 C 330.425 68.667,330.500 68.361,330.500 67.988 C 330.500 67.607,330.610 67.200,330.750 67.060 C 330.887 66.922,331.000 66.594,331.000 66.331 C 331.000 66.068,331.075 65.807,331.167 65.750 C 331.258 65.693,331.333 65.159,331.333 64.564 C 331.333 63.884,331.395 63.519,331.500 63.583 C 331.606 63.649,331.667 63.192,331.667 62.331 C 331.667 61.349,331.735 60.907,331.917 60.726 C 332.125 60.518,332.167 59.820,332.167 56.571 C 332.167 54.079,332.227 52.667,332.333 52.667 C 332.444 52.667,332.500 43.778,332.500 26.333 L 332.500 0.000 324.167 0.000 L 315.833 0.000 315.833 11.500 M360.417 20.500 C 360.482 20.606,359.979 20.667,359.024 20.667 C 358.047 20.667,357.506 20.733,357.464 20.858 C 357.428 20.966,356.971 21.068,356.414 21.093 C 355.871 21.117,355.399 21.218,355.366 21.318 C 355.333 21.418,354.941 21.500,354.496 21.500 C 354.051 21.500,353.640 21.575,353.583 21.667 C 353.527 21.758,353.275 21.833,353.023 21.833 C 352.772 21.833,352.495 21.904,352.408 21.990 C 352.321 22.076,352.026 22.187,351.751 22.236 C 351.477 22.286,351.227 22.403,351.196 22.496 C 351.164 22.590,350.958 22.667,350.736 22.667 C 350.515 22.667,350.333 22.742,350.333 22.833 C 350.333 22.925,350.146 23.000,349.917 23.000 C 349.688 23.000,349.500 23.069,349.500 23.153 C 349.500 23.238,349.285 23.354,349.023 23.412 C 348.760 23.469,348.404 23.647,348.231 23.806 C 348.058 23.965,347.673 24.196,347.375 24.318 C 347.077 24.440,346.833 24.636,346.833 24.752 C 346.833 24.869,346.660 25.007,346.447 25.061 C 345.986 25.177,345.333 25.714,345.333 25.978 C 345.333 26.082,345.255 26.167,345.159 26.167 C 344.933 26.167,344.167 26.933,344.167 27.159 C 344.167 27.255,344.102 27.333,344.023 27.333 C 343.754 27.333,343.000 28.210,343.000 28.523 C 343.000 28.694,342.915 28.833,342.810 28.833 C 342.554 28.833,342.179 29.348,342.172 29.708 C 342.169 29.869,342.092 30.000,342.000 30.000 C 341.908 30.000,341.833 30.188,341.833 30.417 C 341.833 30.676,341.739 30.833,341.583 30.833 C 341.446 30.833,341.333 30.979,341.333 31.157 C 341.333 31.335,341.258 31.527,341.167 31.583 C 341.075 31.640,341.000 31.832,341.000 32.010 C 341.000 32.188,340.925 32.333,340.833 32.333 C 340.742 32.333,340.667 32.515,340.667 32.736 C 340.667 32.958,340.588 33.165,340.491 33.197 C 340.302 33.260,340.017 34.201,339.882 35.208 C 339.836 35.552,339.731 35.833,339.649 35.833 C 339.567 35.833,339.500 36.213,339.500 36.677 C 339.500 37.196,339.436 37.480,339.333 37.417 C 339.242 37.360,339.163 37.337,339.159 37.365 C 339.155 37.393,339.107 37.904,339.054 38.500 C 339.001 39.096,338.892 39.608,338.812 39.639 C 338.732 39.669,338.667 40.321,338.667 41.087 C 338.667 41.854,338.592 42.527,338.500 42.583 C 338.392 42.650,338.333 45.721,338.333 51.250 C 338.333 56.779,338.392 59.850,338.500 59.917 C 338.592 59.973,338.667 60.646,338.667 61.413 C 338.667 62.179,338.732 62.831,338.812 62.861 C 338.892 62.892,339.001 63.404,339.054 64.000 C 339.107 64.596,339.155 65.107,339.159 65.135 C 339.163 65.163,339.242 65.140,339.333 65.083 C 339.436 65.020,339.500 65.301,339.500 65.814 C 339.500 66.272,339.575 66.693,339.667 66.750 C 339.758 66.807,339.833 67.074,339.833 67.343 C 339.833 67.613,339.908 67.833,340.000 67.833 C 340.092 67.833,340.158 67.890,340.147 67.958 C 340.076 68.410,340.204 69.014,340.417 69.226 C 340.554 69.364,340.667 69.632,340.667 69.821 C 340.667 70.011,340.742 70.167,340.833 70.167 C 340.925 70.167,341.000 70.312,341.000 70.490 C 341.000 70.668,341.075 70.860,341.167 70.917 C 341.258 70.973,341.333 71.165,341.333 71.343 C 341.333 71.521,341.407 71.667,341.497 71.667 C 341.587 71.667,341.707 71.854,341.765 72.083 C 341.822 72.313,341.936 72.500,342.018 72.500 C 342.100 72.500,342.169 72.631,342.172 72.792 C 342.179 73.152,342.554 73.667,342.810 73.667 C 342.915 73.667,343.000 73.806,343.000 73.977 C 343.000 74.290,343.754 75.167,344.023 75.167 C 344.102 75.167,344.167 75.245,344.167 75.341 C 344.167 75.567,344.933 76.333,345.159 76.333 C 345.255 76.333,345.333 76.418,345.333 76.522 C 345.333 76.798,346.201 77.500,346.542 77.500 C 346.702 77.500,346.833 77.603,346.833 77.730 C 346.833 77.856,347.077 78.060,347.375 78.182 C 347.673 78.304,348.058 78.535,348.231 78.694 C 348.404 78.853,348.760 79.031,349.023 79.088 C 349.285 79.146,349.500 79.262,349.500 79.347 C 349.500 79.431,349.688 79.500,349.917 79.500 C 350.146 79.500,350.333 79.575,350.333 79.667 C 350.333 79.758,350.515 79.833,350.736 79.833 C 350.958 79.833,351.164 79.910,351.196 80.004 C 351.227 80.097,351.475 80.214,351.748 80.264 C 352.020 80.313,352.282 80.406,352.330 80.469 C 352.378 80.533,352.642 80.611,352.917 80.643 C 353.192 80.675,353.454 80.754,353.500 80.819 C 353.546 80.884,353.958 80.958,354.416 80.983 C 354.874 81.009,355.296 81.106,355.352 81.198 C 355.409 81.290,355.886 81.384,356.411 81.407 C 357.012 81.434,357.419 81.536,357.510 81.683 C 357.735 82.047,380.771 82.031,381.055 81.667 C 381.179 81.507,381.581 81.405,382.164 81.384 C 382.666 81.366,383.104 81.273,383.136 81.176 C 383.168 81.079,383.594 81.000,384.083 81.000 C 384.572 81.000,384.997 80.932,385.028 80.849 C 385.058 80.766,385.308 80.673,385.583 80.641 C 385.858 80.610,386.122 80.533,386.170 80.469 C 386.218 80.406,386.480 80.313,386.752 80.264 C 387.025 80.214,387.273 80.097,387.304 80.004 C 387.336 79.910,387.542 79.833,387.764 79.833 C 387.985 79.833,388.167 79.758,388.167 79.667 C 388.167 79.575,388.310 79.500,388.485 79.500 C 388.874 79.500,390.500 78.674,390.500 78.476 C 390.500 78.398,390.616 78.333,390.757 78.333 C 390.899 78.333,391.217 78.146,391.464 77.917 C 391.711 77.688,391.981 77.500,392.065 77.500 C 392.148 77.500,392.471 77.238,392.783 76.917 C 393.094 76.596,393.387 76.333,393.432 76.333 C 393.537 76.333,394.333 75.542,394.333 75.437 C 394.333 75.273,395.323 74.378,395.409 74.465 C 395.459 74.515,395.500 74.356,395.500 74.111 C 395.500 73.827,395.590 73.667,395.750 73.667 C 395.887 73.667,396.000 73.554,396.000 73.417 C 396.000 73.279,396.075 73.167,396.167 73.167 C 396.258 73.167,396.333 73.017,396.333 72.833 C 396.333 72.650,396.401 72.500,396.483 72.500 C 396.566 72.500,396.772 72.163,396.942 71.751 C 397.111 71.338,397.306 71.001,397.375 71.001 C 397.444 71.000,397.500 70.813,397.500 70.583 C 397.500 70.354,397.575 70.167,397.667 70.167 C 397.758 70.167,397.833 69.985,397.833 69.764 C 397.833 69.542,397.910 69.336,398.004 69.304 C 398.097 69.273,398.214 69.025,398.264 68.752 C 398.313 68.480,398.406 68.218,398.469 68.170 C 398.533 68.122,398.610 67.858,398.641 67.583 C 398.673 67.308,398.766 67.058,398.849 67.028 C 398.932 66.997,399.000 66.572,399.000 66.083 C 399.000 65.594,399.079 65.168,399.176 65.136 C 399.273 65.104,399.366 64.666,399.384 64.164 C 399.405 63.581,399.507 63.179,399.667 63.055 C 399.885 62.885,399.917 61.372,399.917 51.250 C 399.917 41.128,399.885 39.615,399.667 39.445 C 399.507 39.321,399.405 38.919,399.384 38.336 C 399.366 37.834,399.273 37.396,399.176 37.364 C 399.079 37.332,399.000 36.906,399.000 36.417 C 399.000 35.928,398.932 35.503,398.849 35.472 C 398.766 35.442,398.673 35.192,398.641 34.917 C 398.610 34.642,398.533 34.378,398.469 34.330 C 398.406 34.282,398.313 34.020,398.264 33.748 C 398.214 33.475,398.097 33.227,398.004 33.196 C 397.910 33.164,397.833 32.958,397.833 32.736 C 397.833 32.515,397.758 32.333,397.667 32.333 C 397.575 32.333,397.500 32.146,397.500 31.917 C 397.500 31.688,397.444 31.500,397.375 31.499 C 397.306 31.499,397.111 31.162,396.942 30.749 C 396.772 30.337,396.566 30.000,396.483 30.000 C 396.401 30.000,396.333 29.850,396.333 29.667 C 396.333 29.483,396.258 29.333,396.167 29.333 C 396.075 29.333,396.000 29.221,396.000 29.083 C 396.000 28.946,395.887 28.833,395.750 28.833 C 395.590 28.833,395.500 28.673,395.500 28.389 C 395.500 28.144,395.459 27.985,395.409 28.035 C 395.323 28.122,394.333 27.227,394.333 27.063 C 394.333 26.951,393.534 26.167,393.419 26.167 C 393.366 26.167,393.093 25.904,392.811 25.583 C 392.529 25.262,392.157 25.000,391.983 25.000 C 391.809 25.000,391.667 24.887,391.667 24.750 C 391.667 24.613,391.554 24.500,391.417 24.500 C 391.279 24.500,391.167 24.425,391.167 24.333 C 391.167 24.242,391.017 24.167,390.833 24.167 C 390.650 24.167,390.500 24.102,390.500 24.024 C 390.500 23.826,388.874 23.000,388.485 23.000 C 388.310 23.000,388.167 22.925,388.167 22.833 C 388.167 22.742,387.985 22.667,387.764 22.667 C 387.542 22.667,387.336 22.590,387.304 22.496 C 387.273 22.403,387.025 22.286,386.752 22.236 C 386.480 22.187,386.210 22.069,386.152 21.976 C 386.094 21.882,385.998 21.811,385.940 21.819 C 385.412 21.890,384.832 21.803,384.917 21.667 C 384.981 21.563,384.673 21.500,384.107 21.500 C 383.585 21.500,383.168 21.421,383.133 21.315 C 383.098 21.211,382.651 21.119,382.121 21.106 C 381.533 21.092,381.140 21.004,381.091 20.875 C 381.035 20.729,380.554 20.667,379.495 20.667 C 378.528 20.667,378.018 20.606,378.083 20.500 C 378.152 20.390,375.165 20.333,369.250 20.333 C 363.335 20.333,360.348 20.390,360.417 20.500 M303.571 33.980 C 303.621 34.061,304.468 34.140,305.454 34.155 C 306.823 34.177,307.278 34.241,307.382 34.425 C 307.468 34.580,307.784 34.667,308.258 34.667 C 308.666 34.667,309.000 34.742,309.000 34.833 C 309.000 34.925,309.267 35.000,309.593 35.000 C 309.946 35.000,310.145 35.067,310.083 35.167 C 310.025 35.261,310.165 35.333,310.407 35.333 C 310.641 35.333,310.833 35.408,310.833 35.500 C 310.833 35.592,310.941 35.667,311.072 35.667 C 311.391 35.667,313.072 37.334,313.408 37.984 C 313.555 38.268,313.748 38.500,313.838 38.500 C 313.927 38.500,314.000 38.762,314.000 39.083 C 314.000 39.404,314.075 39.667,314.167 39.667 C 314.258 39.667,314.333 39.923,314.333 40.236 C 314.333 40.549,314.404 40.831,314.491 40.861 C 314.577 40.892,314.666 41.310,314.687 41.792 C 314.714 42.386,314.797 42.667,314.946 42.667 C 315.114 42.667,315.167 43.049,315.167 44.250 C 315.167 45.194,315.234 45.833,315.333 45.833 C 315.441 45.833,315.500 47.750,315.500 51.250 C 315.500 54.750,315.441 56.667,315.333 56.667 C 315.232 56.667,315.167 57.391,315.167 58.505 C 315.167 59.986,315.118 60.362,314.917 60.440 C 314.764 60.498,314.667 60.751,314.667 61.091 C 314.667 61.397,314.607 61.684,314.533 61.729 C 314.460 61.775,314.381 62.134,314.358 62.527 C 314.334 62.920,314.256 63.281,314.183 63.329 C 314.111 63.377,314.001 63.623,313.939 63.875 C 313.877 64.127,313.753 64.333,313.663 64.333 C 313.574 64.333,313.500 64.446,313.500 64.583 C 313.500 64.721,313.425 64.833,313.333 64.833 C 313.242 64.833,313.167 64.983,313.167 65.167 C 313.167 65.350,313.092 65.500,313.000 65.500 C 312.908 65.500,312.833 65.612,312.833 65.750 C 312.833 65.887,312.748 66.000,312.645 66.000 C 312.541 66.000,312.334 66.136,312.186 66.303 C 312.038 66.470,311.804 66.660,311.667 66.726 C 311.079 67.009,310.674 67.285,310.745 67.356 C 310.787 67.398,310.547 67.451,310.211 67.474 C 309.874 67.496,309.521 67.578,309.425 67.655 C 309.329 67.732,309.006 67.847,308.708 67.911 C 308.410 67.974,308.167 68.096,308.167 68.180 C 308.167 68.264,307.454 68.333,306.583 68.333 C 305.639 68.333,305.000 68.401,305.000 68.500 C 305.000 68.727,298.057 68.727,297.917 68.500 C 297.859 68.407,297.082 68.333,296.157 68.333 C 294.851 68.333,294.500 68.284,294.500 68.101 C 294.500 67.960,294.255 67.832,293.875 67.777 C 292.691 67.604,292.167 67.462,292.167 67.314 C 292.167 67.233,292.017 67.167,291.833 67.167 C 291.648 67.167,291.500 67.056,291.500 66.917 C 291.500 66.779,291.422 66.667,291.326 66.667 C 291.100 66.667,290.333 65.900,290.333 65.674 C 290.333 65.578,290.258 65.500,290.167 65.500 C 290.075 65.500,290.000 65.350,290.000 65.167 C 290.000 64.981,289.889 64.833,289.750 64.833 C 289.575 64.833,289.500 64.657,289.500 64.250 C 289.500 63.929,289.425 63.667,289.333 63.667 C 289.242 63.667,289.167 63.344,289.167 62.950 C 289.167 62.556,289.096 62.162,289.010 62.075 C 288.923 61.988,288.835 61.478,288.814 60.942 C 288.789 60.316,288.696 59.937,288.554 59.882 C 288.208 59.750,288.231 43.199,288.578 42.740 C 288.713 42.562,288.825 42.065,288.828 41.635 C 288.831 41.205,288.908 40.807,289.000 40.750 C 289.092 40.693,289.167 40.239,289.167 39.740 C 289.167 39.241,289.242 38.833,289.333 38.833 C 289.425 38.833,289.500 38.654,289.500 38.434 C 289.500 38.215,289.612 37.992,289.750 37.940 C 289.887 37.887,290.000 37.729,290.000 37.589 C 290.000 37.448,290.075 37.333,290.167 37.333 C 290.258 37.333,290.333 37.146,290.333 36.917 C 290.333 36.607,290.422 36.500,290.677 36.500 C 290.865 36.500,290.973 36.425,290.917 36.333 C 290.860 36.242,290.925 36.167,291.061 36.167 C 291.198 36.167,291.457 35.979,291.637 35.750 C 291.817 35.521,292.127 35.333,292.325 35.333 C 292.524 35.333,292.640 35.258,292.583 35.167 C 292.525 35.073,292.660 35.000,292.893 35.000 C 293.120 35.000,293.331 34.929,293.361 34.842 C 293.392 34.755,293.744 34.664,294.143 34.641 C 294.551 34.618,294.906 34.504,294.953 34.383 C 295.012 34.227,295.470 34.167,296.591 34.167 C 297.449 34.167,298.193 34.092,298.250 34.000 C 298.378 33.792,303.443 33.773,303.571 33.980 M375.060 34.417 C 375.216 34.573,375.626 34.667,376.155 34.667 C 376.620 34.667,377.000 34.742,377.000 34.833 C 377.000 34.925,377.262 35.000,377.583 35.000 C 377.904 35.000,378.167 35.075,378.167 35.167 C 378.167 35.258,378.320 35.333,378.507 35.333 C 378.825 35.333,378.984 35.426,379.577 35.958 C 379.705 36.073,379.866 36.167,379.936 36.167 C 380.146 36.167,380.833 36.877,380.833 37.095 C 380.833 37.206,380.946 37.341,381.083 37.394 C 381.221 37.446,381.333 37.604,381.333 37.745 C 381.333 37.885,381.408 38.000,381.500 38.000 C 381.592 38.000,381.667 38.112,381.667 38.250 C 381.667 38.387,381.742 38.500,381.833 38.500 C 381.925 38.500,382.000 38.721,382.000 38.990 C 382.000 39.260,382.075 39.527,382.167 39.583 C 382.258 39.640,382.334 39.851,382.334 40.052 C 382.335 40.252,382.442 40.620,382.571 40.869 C 382.701 41.118,382.828 41.680,382.852 42.119 C 382.877 42.558,382.954 42.957,383.025 43.006 C 383.095 43.055,383.164 44.086,383.177 45.298 C 383.189 46.509,383.267 47.543,383.350 47.594 C 383.564 47.726,383.544 54.786,383.329 54.919 C 383.235 54.978,383.169 55.113,383.182 55.221 C 383.288 56.077,383.138 59.668,383.000 59.583 C 382.897 59.520,382.831 59.819,382.828 60.365 C 382.825 60.877,382.720 61.386,382.578 61.574 C 382.443 61.751,382.333 62.103,382.333 62.355 C 382.333 62.607,382.258 62.860,382.167 62.917 C 382.075 62.973,382.000 63.240,382.000 63.510 C 382.000 63.779,381.925 64.000,381.833 64.000 C 381.742 64.000,381.667 64.188,381.667 64.417 C 381.667 64.646,381.586 64.833,381.488 64.833 C 381.283 64.833,380.833 65.247,380.833 65.436 C 380.833 65.615,380.137 66.333,379.964 66.333 C 379.827 66.333,379.626 66.477,379.089 66.958 C 378.962 67.073,378.702 67.167,378.512 67.167 C 378.322 67.167,378.167 67.242,378.167 67.333 C 378.167 67.425,377.904 67.500,377.583 67.500 C 377.262 67.500,377.000 67.575,377.000 67.667 C 377.000 67.758,376.620 67.833,376.155 67.833 C 375.626 67.833,375.216 67.927,375.060 68.083 C 374.847 68.296,373.970 68.333,369.250 68.333 C 364.530 68.333,363.653 68.296,363.440 68.083 C 363.284 67.927,362.874 67.833,362.345 67.833 C 361.880 67.833,361.500 67.758,361.500 67.667 C 361.500 67.575,361.238 67.500,360.917 67.500 C 360.596 67.500,360.333 67.425,360.333 67.333 C 360.333 67.242,360.180 67.167,359.993 67.167 C 359.675 67.167,359.516 67.074,358.923 66.542 C 358.795 66.427,358.638 66.333,358.573 66.333 C 358.426 66.333,357.667 65.461,357.667 65.292 C 357.667 65.223,357.586 65.167,357.488 65.167 C 357.194 65.167,356.833 64.714,356.833 64.345 C 356.833 64.155,356.758 64.000,356.667 64.000 C 356.575 64.000,356.500 63.790,356.500 63.533 C 356.500 63.277,356.431 62.995,356.347 62.908 C 356.263 62.821,356.149 62.450,356.092 62.083 C 356.036 61.717,355.917 61.392,355.828 61.361 C 355.739 61.331,355.667 60.857,355.667 60.310 C 355.667 59.688,355.604 59.352,355.500 59.417 C 355.363 59.501,355.210 55.265,355.318 54.388 C 355.331 54.280,355.265 54.144,355.171 54.086 C 354.940 53.943,354.940 48.557,355.171 48.414 C 355.265 48.356,355.331 48.220,355.318 48.112 C 355.210 47.235,355.363 42.999,355.500 43.083 C 355.604 43.148,355.667 42.812,355.667 42.190 C 355.667 41.643,355.739 41.169,355.828 41.139 C 355.917 41.108,356.036 40.783,356.092 40.417 C 356.149 40.050,356.263 39.679,356.347 39.592 C 356.431 39.505,356.500 39.223,356.500 38.967 C 356.500 38.710,356.575 38.500,356.667 38.500 C 356.758 38.500,356.833 38.345,356.833 38.155 C 356.833 37.786,357.194 37.333,357.488 37.333 C 357.586 37.333,357.667 37.277,357.667 37.208 C 357.667 37.039,358.426 36.167,358.573 36.167 C 358.638 36.167,358.795 36.073,358.923 35.958 C 359.516 35.426,359.675 35.333,359.993 35.333 C 360.180 35.333,360.333 35.258,360.333 35.167 C 360.333 35.075,360.596 35.000,360.917 35.000 C 361.238 35.000,361.500 34.925,361.500 34.833 C 361.500 34.742,361.880 34.667,362.345 34.667 C 362.874 34.667,363.284 34.573,363.440 34.417 C 363.653 34.204,364.530 34.167,369.250 34.167 C 373.970 34.167,374.847 34.204,375.060 34.417 " stroke="none" fill="#6cc4b4" fill-rule="evenodd"></path><path id="path1" d="M0.000 7.083 L 0.000 14.167 10.333 14.167 L 20.666 14.167 20.708 47.375 L 20.750 80.583 29.323 80.627 C 36.070 80.661,37.923 80.625,38.028 80.460 C 38.102 80.344,38.163 65.381,38.164 47.208 L 38.167 14.167 48.750 14.167 L 59.333 14.167 59.333 7.083 L 59.333 0.000 29.667 0.000 L 0.000 0.000 0.000 7.083 M69.000 40.333 L 69.000 80.667 77.333 80.667 L 85.667 80.667 85.667 61.927 C 85.667 49.613,85.724 43.151,85.833 43.083 C 85.925 43.027,86.000 42.505,86.000 41.925 C 86.000 41.140,86.064 40.844,86.250 40.773 C 86.396 40.717,86.500 40.467,86.500 40.172 C 86.500 39.894,86.575 39.667,86.667 39.667 C 86.758 39.667,86.833 39.443,86.833 39.170 C 86.833 38.827,87.015 38.486,87.417 38.072 C 87.737 37.742,88.000 37.365,88.000 37.236 C 88.000 37.106,88.075 37.000,88.167 37.000 C 88.258 37.000,88.333 36.887,88.333 36.750 C 88.333 36.601,88.487 36.500,88.713 36.500 C 88.922 36.500,89.201 36.350,89.333 36.167 C 89.465 35.983,89.745 35.833,89.953 35.833 C 90.180 35.833,90.333 35.732,90.333 35.583 C 90.333 35.409,90.509 35.333,90.917 35.333 C 91.237 35.333,91.500 35.258,91.500 35.167 C 91.500 35.075,91.912 35.000,92.417 35.000 C 92.921 35.000,93.333 34.925,93.333 34.833 C 93.333 34.730,94.247 34.667,95.740 34.667 C 97.239 34.667,98.188 34.601,98.255 34.492 C 98.325 34.379,98.432 34.374,98.557 34.477 C 98.663 34.565,99.912 34.651,101.333 34.669 C 104.537 34.709,104.333 34.696,104.333 34.861 C 104.333 34.938,104.671 35.000,105.083 35.000 C 105.496 35.000,105.833 35.075,105.833 35.167 C 105.833 35.258,106.096 35.333,106.417 35.333 C 106.737 35.333,107.000 35.405,107.000 35.492 C 107.000 35.580,107.263 35.776,107.583 35.928 C 107.904 36.080,108.167 36.271,108.167 36.352 C 108.167 36.434,108.279 36.500,108.417 36.500 C 108.740 36.500,109.333 37.094,109.333 37.417 C 109.333 37.554,109.408 37.667,109.500 37.667 C 109.592 37.667,109.667 37.779,109.667 37.917 C 109.667 38.054,109.742 38.167,109.833 38.167 C 109.925 38.167,110.000 38.384,110.000 38.649 C 110.000 38.924,110.107 39.172,110.250 39.227 C 110.414 39.290,110.500 39.550,110.500 39.985 C 110.500 40.349,110.575 40.693,110.667 40.750 C 110.776 40.818,110.833 47.668,110.833 60.760 L 110.833 80.667 119.167 80.667 L 127.500 80.667 127.500 59.179 C 127.500 40.300,127.470 37.660,127.250 37.440 C 127.067 37.257,127.000 36.810,127.000 35.762 C 127.000 34.921,126.931 34.333,126.833 34.333 C 126.742 34.333,126.667 33.958,126.667 33.500 C 126.667 33.042,126.592 32.667,126.500 32.667 C 126.408 32.667,126.333 32.376,126.333 32.020 C 126.333 31.649,126.227 31.286,126.083 31.167 C 125.946 31.053,125.833 30.818,125.833 30.646 C 125.833 30.474,125.758 30.333,125.667 30.333 C 125.575 30.333,125.500 30.153,125.500 29.932 C 125.500 29.459,124.840 28.159,124.542 28.045 C 124.427 28.000,124.333 27.822,124.333 27.649 C 124.333 27.475,124.258 27.333,124.167 27.333 C 124.075 27.333,124.000 27.253,124.000 27.155 C 124.000 26.924,123.576 26.500,123.345 26.500 C 123.247 26.500,123.167 26.401,123.167 26.280 C 123.167 25.949,122.260 25.000,121.943 25.000 C 121.791 25.000,121.667 24.920,121.667 24.821 C 121.667 24.591,121.243 24.167,121.012 24.167 C 120.914 24.167,120.833 24.092,120.833 24.000 C 120.833 23.908,120.691 23.833,120.518 23.833 C 120.344 23.833,120.166 23.740,120.122 23.625 C 120.006 23.323,118.706 22.667,118.224 22.667 C 117.990 22.667,117.858 22.594,117.918 22.498 C 117.976 22.404,117.795 22.284,117.511 22.227 C 117.230 22.171,117.000 22.059,117.000 21.979 C 117.000 21.899,116.737 21.833,116.417 21.833 C 116.096 21.833,115.833 21.758,115.833 21.667 C 115.833 21.575,115.579 21.500,115.269 21.500 C 114.959 21.500,114.490 21.388,114.227 21.251 C 113.965 21.114,113.506 21.002,113.208 21.001 C 112.910 21.000,112.667 20.925,112.667 20.833 C 112.667 20.736,112.111 20.667,111.333 20.667 C 110.556 20.667,110.000 20.597,110.000 20.500 C 110.000 20.391,107.333 20.333,102.333 20.333 C 97.333 20.333,94.667 20.391,94.667 20.500 C 94.667 20.598,94.083 20.667,93.250 20.667 C 92.471 20.667,91.833 20.731,91.833 20.810 C 91.833 20.889,91.440 21.000,90.959 21.057 C 90.479 21.114,90.060 21.237,90.029 21.330 C 89.998 21.424,89.716 21.500,89.403 21.500 C 89.090 21.500,88.833 21.575,88.833 21.667 C 88.833 21.758,88.646 21.833,88.417 21.833 C 88.188 21.833,88.000 21.908,88.000 22.000 C 88.000 22.092,87.886 22.167,87.747 22.167 C 87.607 22.167,87.196 22.354,86.833 22.583 C 85.568 23.382,85.667 24.316,85.667 11.500 L 85.667 0.000 77.333 0.000 L 69.000 0.000 69.000 40.333 M158.000 20.500 C 158.000 20.600,157.344 20.667,156.367 20.667 C 155.467 20.667,154.656 20.744,154.562 20.838 C 154.467 20.933,153.910 21.041,153.323 21.078 C 152.737 21.116,152.230 21.226,152.198 21.323 C 152.165 21.420,151.812 21.500,151.413 21.500 C 151.013 21.500,150.640 21.575,150.583 21.667 C 150.527 21.758,150.185 21.833,149.823 21.833 C 149.462 21.833,149.167 21.908,149.167 22.000 C 149.167 22.092,148.985 22.167,148.762 22.167 C 148.539 22.167,148.245 22.279,148.107 22.417 C 147.970 22.554,147.702 22.667,147.512 22.667 C 147.322 22.667,147.167 22.742,147.167 22.833 C 147.167 22.925,146.985 23.000,146.764 23.000 C 146.338 23.000,145.336 23.496,145.334 23.708 C 145.334 23.777,145.221 23.833,145.083 23.833 C 144.946 23.833,144.833 23.908,144.833 24.000 C 144.833 24.092,144.683 24.167,144.500 24.167 C 144.317 24.167,144.167 24.233,144.167 24.314 C 144.167 24.395,144.009 24.502,143.817 24.553 C 143.624 24.603,143.516 24.724,143.576 24.822 C 143.641 24.926,143.544 25.000,143.343 25.000 C 143.154 25.000,143.000 25.062,143.000 25.139 C 143.000 25.215,142.813 25.377,142.583 25.500 C 142.354 25.623,142.167 25.791,142.167 25.873 C 142.167 26.046,141.744 26.500,141.583 26.500 C 141.410 26.500,141.000 26.961,141.000 27.155 C 141.000 27.253,140.925 27.333,140.833 27.333 C 140.742 27.333,140.667 27.483,140.667 27.667 C 140.667 27.852,140.556 28.000,140.417 28.000 C 140.279 28.000,140.167 28.113,140.167 28.250 C 140.167 28.387,140.092 28.500,140.000 28.500 C 139.908 28.500,139.833 28.650,139.833 28.833 C 139.833 29.017,139.758 29.167,139.667 29.167 C 139.575 29.167,139.500 29.279,139.500 29.417 C 139.500 29.554,139.444 29.667,139.375 29.668 C 139.207 29.669,138.667 30.633,138.667 30.930 C 138.667 31.060,138.592 31.167,138.500 31.167 C 138.408 31.167,138.333 31.397,138.333 31.679 C 138.333 31.960,138.221 32.303,138.083 32.440 C 137.946 32.578,137.833 32.831,137.833 33.002 C 137.833 33.173,137.758 33.360,137.667 33.417 C 137.575 33.473,137.500 33.778,137.500 34.093 C 137.500 34.409,137.425 34.667,137.333 34.667 C 137.242 34.667,137.167 35.004,137.167 35.417 C 137.167 35.829,137.092 36.167,137.000 36.167 C 136.905 36.167,136.833 36.661,136.833 37.316 C 136.833 38.183,136.772 38.488,136.583 38.560 C 136.384 38.637,136.333 38.996,136.333 40.328 C 136.333 41.332,136.267 42.000,136.167 42.000 C 136.058 42.000,136.000 45.163,136.000 51.157 C 136.000 57.082,136.059 60.350,136.167 60.417 C 136.259 60.473,136.333 61.218,136.333 62.075 C 136.333 63.304,136.386 63.651,136.583 63.727 C 136.767 63.797,136.833 64.087,136.833 64.818 C 136.833 65.366,136.908 65.860,137.000 65.917 C 137.092 65.973,137.167 66.353,137.167 66.760 C 137.167 67.167,137.242 67.500,137.333 67.500 C 137.425 67.500,137.500 67.796,137.500 68.157 C 137.500 68.518,137.566 68.855,137.648 68.905 C 137.729 68.955,137.845 69.260,137.905 69.581 C 137.966 69.903,138.087 70.167,138.174 70.167 C 138.262 70.167,138.333 70.354,138.333 70.583 C 138.333 70.813,138.408 71.000,138.500 71.000 C 138.592 71.000,138.667 71.151,138.667 71.336 C 138.667 71.726,138.992 72.358,139.292 72.550 C 139.406 72.623,139.500 72.830,139.500 73.008 C 139.500 73.187,139.575 73.333,139.667 73.333 C 139.758 73.333,139.833 73.483,139.833 73.667 C 139.833 73.850,139.908 74.000,140.000 74.000 C 140.092 74.000,140.167 74.112,140.167 74.250 C 140.167 74.387,140.267 74.500,140.390 74.500 C 140.514 74.500,140.788 74.837,141.000 75.250 C 141.212 75.662,141.454 76.000,141.538 76.000 C 141.724 76.000,142.164 76.425,142.173 76.613 C 142.179 76.752,143.294 77.612,143.859 77.915 C 144.028 78.005,144.167 78.136,144.167 78.206 C 144.167 78.276,144.317 78.333,144.500 78.333 C 144.683 78.333,144.833 78.408,144.833 78.500 C 144.833 78.592,144.946 78.667,145.083 78.667 C 145.221 78.667,145.333 78.740,145.333 78.830 C 145.333 78.920,145.521 79.041,145.750 79.098 C 145.979 79.156,146.167 79.270,146.167 79.351 C 146.167 79.433,146.312 79.500,146.490 79.500 C 146.668 79.500,146.860 79.575,146.917 79.667 C 146.973 79.758,147.232 79.833,147.492 79.833 C 147.758 79.833,148.006 79.942,148.060 80.083 C 148.116 80.229,148.366 80.333,148.661 80.333 C 148.939 80.333,149.167 80.408,149.167 80.500 C 149.167 80.592,149.429 80.667,149.750 80.667 C 150.071 80.667,150.333 80.742,150.333 80.833 C 150.333 80.925,150.665 81.000,151.069 81.000 C 151.474 81.000,151.831 81.070,151.861 81.155 C 152.132 81.913,177.316 82.442,178.199 81.709 C 178.337 81.594,179.040 81.471,179.761 81.435 C 180.516 81.397,181.097 81.291,181.133 81.185 C 181.167 81.083,181.526 81.000,181.931 81.000 C 182.335 81.000,182.667 80.925,182.667 80.833 C 182.667 80.742,182.914 80.667,183.217 80.667 C 183.519 80.667,183.838 80.596,183.925 80.510 C 184.012 80.424,184.302 80.314,184.570 80.266 C 184.837 80.218,185.104 80.101,185.163 80.007 C 185.221 79.912,185.471 79.818,185.718 79.798 C 185.965 79.777,186.167 79.702,186.167 79.630 C 186.167 79.559,186.354 79.500,186.583 79.500 C 186.813 79.500,187.000 79.425,187.000 79.333 C 187.000 79.242,187.109 79.167,187.242 79.167 C 187.376 79.167,187.672 78.979,187.902 78.750 C 188.131 78.521,188.439 78.333,188.588 78.333 C 188.883 78.333,189.333 77.950,189.333 77.698 C 189.333 77.610,189.598 77.412,189.922 77.259 C 190.245 77.105,190.601 76.834,190.712 76.657 C 190.823 76.479,190.981 76.333,191.063 76.333 C 191.263 76.333,191.655 75.807,191.661 75.530 C 191.668 75.263,192.075 74.833,192.321 74.833 C 192.420 74.833,192.500 74.721,192.500 74.583 C 192.500 74.446,192.575 74.333,192.667 74.333 C 192.758 74.333,192.833 74.183,192.833 74.000 C 192.833 73.817,192.908 73.667,193.000 73.667 C 193.092 73.667,193.167 73.479,193.167 73.250 C 193.167 72.991,193.261 72.833,193.417 72.833 C 193.554 72.833,193.667 72.688,193.667 72.510 C 193.667 72.332,193.742 72.140,193.833 72.083 C 193.925 72.027,194.000 71.760,194.000 71.490 C 194.000 71.221,194.075 71.000,194.167 71.000 C 194.258 71.000,194.333 70.660,194.333 70.245 C 194.333 69.766,194.415 69.458,194.557 69.404 C 194.709 69.345,194.793 68.956,194.817 68.200 C 194.836 67.586,194.923 67.058,195.009 67.028 C 195.308 66.923,195.206 62.217,194.903 62.101 C 194.559 61.969,179.108 61.969,178.764 62.101 C 178.551 62.183,178.500 62.487,178.500 63.684 C 178.500 64.561,178.432 65.167,178.333 65.167 C 178.242 65.167,178.167 65.317,178.167 65.500 C 178.167 65.873,176.922 67.167,176.563 67.167 C 176.437 67.167,176.333 67.242,176.333 67.333 C 176.333 67.425,176.146 67.500,175.917 67.500 C 175.688 67.500,175.500 67.575,175.500 67.667 C 175.500 67.758,175.172 67.833,174.770 67.833 C 174.325 67.833,173.960 67.931,173.833 68.083 C 173.672 68.278,173.221 68.333,171.813 68.333 C 170.715 68.333,170.000 68.399,170.000 68.500 C 170.000 68.606,168.667 68.667,166.333 68.667 C 164.000 68.667,162.667 68.606,162.667 68.500 C 162.667 68.401,162.034 68.333,161.101 68.333 C 159.863 68.333,159.516 68.281,159.440 68.083 C 159.381 67.930,159.128 67.833,158.789 67.833 C 158.483 67.833,158.161 67.761,158.072 67.672 C 157.984 67.584,157.674 67.493,157.384 67.471 C 157.094 67.449,156.893 67.371,156.938 67.299 C 156.983 67.226,156.903 67.167,156.760 67.167 C 156.617 67.167,156.500 67.054,156.500 66.917 C 156.500 66.779,156.387 66.667,156.250 66.667 C 156.112 66.667,156.000 66.592,156.000 66.500 C 156.000 66.408,155.850 66.333,155.667 66.333 C 155.462 66.333,155.331 66.220,155.328 66.042 C 155.321 65.681,154.946 65.167,154.690 65.167 C 154.585 65.167,154.500 64.957,154.500 64.700 C 154.500 64.443,154.430 64.162,154.344 64.075 C 154.258 63.988,154.160 63.713,154.128 63.465 C 154.095 63.216,154.015 62.960,153.951 62.895 C 153.886 62.831,153.833 62.461,153.833 62.073 C 153.833 61.601,153.751 61.337,153.583 61.273 C 153.382 61.196,153.333 60.819,153.333 59.339 C 153.333 58.224,153.268 57.500,153.167 57.500 C 153.075 57.500,153.000 57.387,153.000 57.250 C 153.000 57.029,155.454 57.000,174.083 57.000 L 195.167 57.000 195.167 55.250 C 195.167 54.194,195.233 53.500,195.333 53.500 C 195.441 53.500,195.500 51.781,195.500 48.677 C 195.500 45.641,195.438 43.815,195.333 43.750 C 195.235 43.689,195.167 42.665,195.167 41.240 C 195.167 39.747,195.103 38.833,195.000 38.833 C 194.906 38.833,194.833 38.359,194.833 37.745 C 194.833 36.931,194.770 36.632,194.583 36.560 C 194.409 36.493,194.333 36.221,194.333 35.659 C 194.333 35.216,194.258 34.807,194.167 34.750 C 194.075 34.693,194.000 34.389,194.000 34.073 C 194.000 33.758,193.925 33.500,193.833 33.500 C 193.742 33.500,193.667 33.237,193.667 32.917 C 193.667 32.509,193.591 32.333,193.417 32.333 C 193.251 32.333,193.167 32.168,193.167 31.843 C 193.167 31.574,193.092 31.307,193.000 31.250 C 192.908 31.193,192.833 30.964,192.833 30.740 C 192.833 30.516,192.758 30.333,192.667 30.333 C 192.575 30.333,192.500 30.218,192.500 30.078 C 192.500 29.938,192.387 29.780,192.250 29.727 C 192.112 29.674,192.000 29.527,192.000 29.399 C 192.000 29.271,191.925 29.167,191.833 29.167 C 191.742 29.167,191.667 29.017,191.667 28.833 C 191.667 28.650,191.592 28.500,191.500 28.500 C 191.408 28.500,191.333 28.387,191.333 28.250 C 191.333 28.113,191.221 28.000,191.083 28.000 C 190.944 28.000,190.833 27.852,190.833 27.667 C 190.833 27.483,190.758 27.333,190.667 27.333 C 190.575 27.333,190.500 27.253,190.500 27.155 C 190.500 26.961,190.090 26.500,189.917 26.500 C 189.778 26.500,189.333 26.056,189.333 25.917 C 189.333 25.744,188.873 25.333,188.679 25.333 C 188.580 25.333,188.500 25.258,188.500 25.167 C 188.500 25.075,188.350 25.000,188.167 25.000 C 187.981 25.000,187.833 24.889,187.833 24.750 C 187.833 24.613,187.721 24.500,187.583 24.500 C 187.446 24.500,187.333 24.425,187.333 24.333 C 187.333 24.242,187.183 24.167,187.000 24.167 C 186.817 24.167,186.667 24.092,186.667 24.000 C 186.667 23.908,186.554 23.833,186.417 23.833 C 186.279 23.833,186.166 23.777,186.166 23.708 C 186.164 23.520,185.183 23.000,184.830 23.000 C 184.659 23.000,184.473 22.925,184.417 22.833 C 184.360 22.742,184.163 22.667,183.978 22.667 C 183.794 22.667,183.530 22.554,183.393 22.417 C 183.255 22.279,182.961 22.167,182.738 22.167 C 182.515 22.167,182.333 22.092,182.333 22.000 C 182.333 21.908,182.071 21.833,181.750 21.833 C 181.429 21.833,181.167 21.758,181.167 21.667 C 181.167 21.575,180.760 21.500,180.264 21.500 C 179.748 21.500,179.335 21.420,179.299 21.314 C 179.265 21.212,178.753 21.100,178.160 21.065 C 177.568 21.030,177.059 20.926,177.028 20.834 C 176.995 20.736,176.249 20.667,175.236 20.667 C 174.190 20.667,173.500 20.600,173.500 20.500 C 173.500 20.391,170.806 20.333,165.750 20.333 C 160.694 20.333,158.000 20.391,158.000 20.500 M225.000 20.500 C 225.000 20.598,224.416 20.667,223.581 20.667 C 222.801 20.667,222.032 20.738,221.873 20.825 C 221.714 20.912,221.227 21.029,220.792 21.085 C 220.356 21.141,220.000 21.257,220.000 21.344 C 220.000 21.430,219.629 21.500,219.177 21.500 C 218.724 21.500,218.307 21.575,218.250 21.667 C 218.193 21.758,217.893 21.833,217.583 21.833 C 217.273 21.833,216.979 21.900,216.928 21.981 C 216.878 22.062,216.574 22.178,216.252 22.239 C 215.930 22.299,215.667 22.420,215.667 22.508 C 215.667 22.595,215.479 22.667,215.250 22.667 C 215.021 22.667,214.833 22.742,214.833 22.833 C 214.833 22.925,214.683 23.000,214.500 23.000 C 214.317 23.000,214.167 23.075,214.167 23.167 C 214.167 23.258,213.991 23.333,213.776 23.333 C 213.561 23.333,213.167 23.521,212.901 23.750 C 212.635 23.979,212.303 24.166,212.165 24.166 C 212.026 24.167,211.772 24.354,211.600 24.583 C 211.427 24.813,211.178 25.000,211.046 25.000 C 210.913 25.000,210.402 25.412,209.910 25.917 C 209.417 26.421,208.936 26.833,208.841 26.833 C 208.745 26.833,208.667 26.908,208.667 27.000 C 208.667 27.091,208.404 27.444,208.083 27.784 C 207.762 28.124,207.500 28.465,207.500 28.542 C 207.500 28.618,207.350 28.842,207.167 29.038 C 206.983 29.235,206.833 29.532,206.833 29.698 C 206.833 29.864,206.721 30.000,206.583 30.000 C 206.428 30.000,206.333 30.157,206.333 30.417 C 206.333 30.646,206.258 30.833,206.167 30.833 C 206.075 30.833,206.000 30.983,206.000 31.167 C 206.000 31.350,205.925 31.500,205.833 31.500 C 205.742 31.500,205.667 31.688,205.667 31.917 C 205.667 32.176,205.572 32.333,205.417 32.333 C 205.200 32.333,205.065 32.856,205.147 33.375 C 205.158 33.444,205.092 33.500,205.000 33.500 C 204.908 33.500,204.833 33.762,204.833 34.083 C 204.833 34.404,204.758 34.667,204.667 34.667 C 204.575 34.667,204.500 34.921,204.500 35.232 C 204.500 35.581,204.404 35.834,204.250 35.894 C 204.079 35.959,204.000 36.226,204.000 36.735 C 204.000 37.145,203.925 37.527,203.833 37.583 C 203.742 37.640,203.667 38.132,203.667 38.677 C 203.667 39.226,203.592 39.667,203.500 39.667 C 203.401 39.667,203.333 40.301,203.333 41.236 C 203.333 42.344,203.272 42.826,203.125 42.875 C 202.962 42.929,202.917 44.754,202.917 51.250 C 202.917 57.746,202.962 59.571,203.125 59.625 C 203.272 59.674,203.333 60.156,203.333 61.264 C 203.333 62.199,203.401 62.833,203.500 62.833 C 203.592 62.833,203.667 63.274,203.667 63.823 C 203.667 64.368,203.742 64.860,203.833 64.917 C 203.925 64.973,204.000 65.355,204.000 65.765 C 204.000 66.274,204.079 66.541,204.250 66.606 C 204.404 66.666,204.500 66.919,204.500 67.268 C 204.500 67.579,204.575 67.833,204.667 67.833 C 204.758 67.833,204.833 68.096,204.833 68.417 C 204.833 68.737,204.908 69.000,205.000 69.000 C 205.092 69.000,205.158 69.056,205.147 69.125 C 205.065 69.644,205.200 70.167,205.417 70.167 C 205.572 70.167,205.667 70.324,205.667 70.583 C 205.667 70.813,205.742 71.000,205.833 71.000 C 205.925 71.000,206.000 71.150,206.000 71.333 C 206.000 71.517,206.075 71.667,206.167 71.667 C 206.258 71.667,206.333 71.854,206.333 72.083 C 206.333 72.343,206.428 72.500,206.583 72.500 C 206.721 72.500,206.833 72.636,206.833 72.802 C 206.833 72.968,206.983 73.265,207.167 73.462 C 207.350 73.658,207.500 73.882,207.500 73.958 C 207.500 74.035,207.762 74.376,208.083 74.716 C 208.404 75.056,208.667 75.409,208.667 75.500 C 208.667 75.592,208.745 75.667,208.841 75.667 C 208.936 75.667,209.417 76.079,209.910 76.583 C 210.402 77.088,210.913 77.500,211.046 77.500 C 211.178 77.500,211.427 77.688,211.600 77.917 C 211.772 78.146,212.026 78.333,212.165 78.334 C 212.303 78.334,212.635 78.521,212.901 78.750 C 213.167 78.979,213.561 79.167,213.776 79.167 C 213.991 79.167,214.167 79.242,214.167 79.333 C 214.167 79.425,214.317 79.500,214.500 79.500 C 214.683 79.500,214.833 79.575,214.833 79.667 C 214.833 79.758,215.021 79.833,215.250 79.833 C 215.479 79.833,215.667 79.905,215.667 79.992 C 215.667 80.080,215.930 80.201,216.252 80.261 C 216.574 80.322,216.878 80.438,216.928 80.519 C 216.979 80.600,217.236 80.667,217.500 80.667 C 217.764 80.667,218.027 80.742,218.083 80.833 C 218.140 80.925,218.594 81.000,219.093 81.000 C 219.592 81.000,220.000 81.070,220.000 81.156 C 220.000 81.243,220.356 81.360,220.792 81.418 C 221.227 81.476,221.763 81.611,221.984 81.720 C 222.538 81.992,245.339 82.004,245.683 81.731 C 245.811 81.629,246.329 81.499,246.832 81.443 C 247.336 81.386,247.773 81.263,247.805 81.170 C 247.836 81.076,248.267 81.000,248.764 81.000 C 249.260 81.000,249.667 80.925,249.667 80.833 C 249.667 80.742,249.929 80.667,250.250 80.667 C 250.571 80.667,250.833 80.592,250.833 80.500 C 250.833 80.408,251.015 80.333,251.238 80.333 C 251.461 80.333,251.755 80.221,251.893 80.083 C 252.030 79.946,252.298 79.833,252.488 79.833 C 252.678 79.833,252.833 79.758,252.833 79.667 C 252.833 79.575,252.977 79.500,253.153 79.500 C 253.496 79.500,254.547 78.999,254.639 78.792 C 254.669 78.723,254.801 78.667,254.931 78.667 C 255.060 78.667,255.167 78.592,255.167 78.500 C 255.167 78.408,255.317 78.333,255.500 78.333 C 255.683 78.333,255.833 78.267,255.833 78.186 C 255.833 78.105,255.991 77.998,256.183 77.947 C 256.376 77.897,256.484 77.776,256.424 77.678 C 256.359 77.574,256.456 77.500,256.657 77.500 C 256.846 77.500,257.000 77.425,257.000 77.333 C 257.000 77.242,257.080 77.167,257.179 77.167 C 257.373 77.167,257.833 76.756,257.833 76.583 C 257.833 76.444,258.278 76.000,258.417 76.000 C 258.561 76.000,259.000 75.553,259.000 75.406 C 259.000 75.341,259.262 75.063,259.583 74.789 C 259.904 74.515,260.167 74.214,260.167 74.120 C 260.167 74.025,260.354 73.702,260.583 73.402 C 260.813 73.101,261.000 72.810,261.000 72.754 C 261.000 72.698,261.150 72.492,261.333 72.295 C 261.517 72.098,261.669 71.820,261.672 71.677 C 261.675 71.534,261.787 71.271,261.922 71.093 C 262.057 70.915,262.167 70.634,262.167 70.468 C 262.167 70.302,262.242 70.167,262.333 70.167 C 262.425 70.167,262.500 70.021,262.500 69.843 C 262.500 69.665,262.575 69.473,262.667 69.417 C 262.758 69.360,262.833 69.098,262.833 68.833 C 262.833 68.569,262.908 68.307,263.000 68.250 C 263.092 68.193,263.167 67.924,263.167 67.652 C 263.167 67.365,263.272 67.116,263.417 67.060 C 263.596 66.991,263.667 66.711,263.667 66.066 C 263.667 65.571,263.742 65.167,263.833 65.167 C 263.926 65.167,264.000 64.727,264.000 64.181 C 264.000 63.638,264.071 63.169,264.158 63.139 C 264.245 63.108,264.330 62.430,264.347 61.632 C 264.368 60.671,264.441 60.193,264.564 60.216 C 264.696 60.240,264.763 59.059,264.795 56.172 C 264.821 53.790,264.907 52.026,265.003 51.930 C 265.093 51.840,265.167 51.534,265.167 51.250 C 265.167 50.966,265.093 50.660,265.003 50.570 C 264.907 50.474,264.821 48.710,264.795 46.328 C 264.763 43.441,264.696 42.260,264.564 42.284 C 264.441 42.307,264.368 41.829,264.347 40.868 C 264.330 40.070,264.245 39.392,264.158 39.361 C 264.071 39.331,264.000 38.862,264.000 38.319 C 264.000 37.773,263.926 37.333,263.833 37.333 C 263.742 37.333,263.667 36.929,263.667 36.434 C 263.667 35.789,263.596 35.509,263.417 35.440 C 263.272 35.384,263.167 35.135,263.167 34.848 C 263.167 34.576,263.092 34.307,263.000 34.250 C 262.908 34.193,262.833 33.926,262.833 33.657 C 262.833 33.387,262.758 33.167,262.667 33.167 C 262.575 33.167,262.500 32.979,262.500 32.750 C 262.500 32.521,262.425 32.333,262.333 32.333 C 262.242 32.333,262.167 32.198,262.167 32.032 C 262.167 31.866,262.057 31.585,261.922 31.407 C 261.787 31.229,261.675 30.966,261.672 30.823 C 261.669 30.680,261.517 30.402,261.333 30.205 C 261.150 30.008,261.000 29.802,261.000 29.746 C 261.000 29.690,260.813 29.399,260.583 29.098 C 260.354 28.798,260.167 28.475,260.167 28.380 C 260.167 28.286,259.904 27.985,259.583 27.711 C 259.262 27.437,259.000 27.159,259.000 27.094 C 259.000 26.947,258.561 26.500,258.417 26.500 C 258.278 26.500,257.833 26.056,257.833 25.917 C 257.833 25.744,257.373 25.333,257.179 25.333 C 257.080 25.333,257.000 25.258,257.000 25.167 C 257.000 25.075,256.885 25.000,256.745 25.000 C 256.604 25.000,256.446 24.887,256.394 24.750 C 256.341 24.613,256.193 24.500,256.066 24.500 C 255.938 24.500,255.833 24.425,255.833 24.333 C 255.833 24.242,255.683 24.167,255.500 24.167 C 255.317 24.167,255.167 24.092,255.167 24.000 C 255.167 23.908,255.060 23.833,254.931 23.833 C 254.801 23.833,254.669 23.777,254.639 23.708 C 254.547 23.501,253.496 23.000,253.153 23.000 C 252.977 23.000,252.833 22.925,252.833 22.833 C 252.833 22.742,252.678 22.667,252.488 22.667 C 252.298 22.667,252.030 22.554,251.893 22.417 C 251.755 22.279,251.461 22.167,251.238 22.167 C 251.015 22.167,250.833 22.092,250.833 22.000 C 250.833 21.908,250.571 21.833,250.250 21.833 C 249.929 21.833,249.667 21.758,249.667 21.667 C 249.667 21.575,249.260 21.500,248.764 21.500 C 248.267 21.500,247.835 21.421,247.803 21.325 C 247.771 21.229,247.312 21.106,246.784 21.051 C 246.256 20.997,245.784 20.888,245.735 20.810 C 245.687 20.731,244.976 20.667,244.157 20.667 C 243.274 20.667,242.667 20.599,242.667 20.500 C 242.667 20.391,239.611 20.333,233.833 20.333 C 228.056 20.333,225.000 20.391,225.000 20.500 M169.667 34.000 C 169.667 34.099,170.300 34.167,171.232 34.167 C 172.470 34.167,172.818 34.219,172.894 34.417 C 172.957 34.582,173.218 34.667,173.661 34.667 C 174.031 34.667,174.333 34.742,174.333 34.833 C 174.333 34.925,174.521 35.000,174.750 35.000 C 174.979 35.000,175.167 35.075,175.167 35.167 C 175.167 35.258,175.309 35.333,175.482 35.333 C 175.656 35.333,175.841 35.446,175.894 35.583 C 175.946 35.721,176.142 35.833,176.328 35.833 C 176.559 35.833,176.667 35.943,176.667 36.177 C 176.667 36.365,176.742 36.473,176.833 36.417 C 176.925 36.360,177.000 36.423,177.000 36.556 C 177.000 36.689,177.186 36.975,177.414 37.191 C 177.656 37.421,177.829 37.773,177.830 38.042 C 177.832 38.294,177.908 38.500,178.000 38.500 C 178.092 38.500,178.167 38.912,178.167 39.417 C 178.167 39.921,178.242 40.333,178.333 40.333 C 178.434 40.333,178.500 41.028,178.500 42.083 L 178.500 43.833 165.917 43.833 L 153.333 43.833 153.333 41.995 C 153.333 40.514,153.382 40.138,153.583 40.060 C 153.753 39.995,153.833 39.729,153.833 39.232 C 153.833 38.829,153.908 38.500,154.000 38.500 C 154.092 38.500,154.167 38.237,154.167 37.917 C 154.167 37.596,154.242 37.333,154.333 37.333 C 154.425 37.333,154.500 37.255,154.500 37.160 C 154.500 36.793,155.960 35.333,156.326 35.333 C 156.422 35.333,156.500 35.258,156.500 35.167 C 156.500 35.075,156.721 35.000,156.990 35.000 C 157.260 35.000,157.527 34.925,157.583 34.833 C 157.640 34.742,157.864 34.667,158.081 34.667 C 158.298 34.667,158.589 34.554,158.726 34.417 C 158.915 34.228,159.385 34.167,160.655 34.167 C 161.663 34.167,162.333 34.100,162.333 34.000 C 162.333 33.894,163.667 33.833,166.000 33.833 C 168.333 33.833,169.667 33.894,169.667 34.000 M239.667 34.424 C 239.667 34.609,239.903 34.667,240.667 34.667 C 241.222 34.667,241.667 34.741,241.667 34.833 C 241.667 34.925,241.929 35.000,242.250 35.000 C 242.571 35.000,242.833 35.075,242.833 35.167 C 242.833 35.258,242.978 35.333,243.155 35.333 C 243.332 35.333,243.589 35.446,243.726 35.583 C 243.864 35.721,244.040 35.833,244.118 35.833 C 244.196 35.833,244.368 35.983,244.500 36.167 C 244.632 36.350,244.836 36.500,244.953 36.500 C 245.071 36.500,245.167 36.564,245.167 36.642 C 245.167 36.720,245.392 37.019,245.667 37.307 C 245.942 37.595,246.167 37.946,246.167 38.087 C 246.167 38.228,246.279 38.387,246.417 38.440 C 246.558 38.494,246.667 38.742,246.667 39.008 C 246.667 39.268,246.742 39.527,246.833 39.583 C 246.925 39.640,247.000 39.944,247.000 40.260 C 247.000 40.575,247.075 40.833,247.167 40.833 C 247.258 40.833,247.333 41.211,247.333 41.672 C 247.333 42.264,247.407 42.539,247.583 42.606 C 247.786 42.684,247.833 43.075,247.833 44.675 C 247.833 45.810,247.904 46.691,248.000 46.750 C 248.104 46.814,248.167 48.498,248.167 51.250 C 248.167 54.002,248.104 55.686,248.000 55.750 C 247.904 55.809,247.833 56.690,247.833 57.825 C 247.833 59.425,247.786 59.816,247.583 59.894 C 247.407 59.961,247.333 60.236,247.333 60.828 C 247.333 61.289,247.258 61.667,247.167 61.667 C 247.075 61.667,247.000 61.925,247.000 62.240 C 247.000 62.556,246.925 62.860,246.833 62.917 C 246.742 62.973,246.667 63.232,246.667 63.492 C 246.667 63.758,246.558 64.006,246.417 64.060 C 246.279 64.113,246.167 64.272,246.167 64.413 C 246.167 64.554,245.942 64.905,245.667 65.193 C 245.392 65.481,245.167 65.780,245.167 65.858 C 245.167 65.936,245.071 66.000,244.953 66.000 C 244.836 66.000,244.632 66.150,244.500 66.333 C 244.368 66.517,244.196 66.667,244.118 66.667 C 244.040 66.667,243.864 66.779,243.726 66.917 C 243.589 67.054,243.332 67.167,243.155 67.167 C 242.978 67.167,242.833 67.242,242.833 67.333 C 242.833 67.425,242.571 67.500,242.250 67.500 C 241.929 67.500,241.667 67.575,241.667 67.667 C 241.667 67.759,241.222 67.833,240.667 67.833 C 239.889 67.833,239.667 67.889,239.667 68.083 C 239.667 68.487,228.605 68.480,228.159 68.076 C 227.997 67.930,227.550 67.833,227.038 67.833 C 226.570 67.833,226.140 67.758,226.083 67.667 C 226.027 67.575,225.760 67.500,225.490 67.500 C 225.221 67.500,225.000 67.425,225.000 67.333 C 225.000 67.242,224.821 67.167,224.601 67.167 C 224.382 67.167,224.159 67.054,224.106 66.917 C 224.054 66.779,223.891 66.667,223.745 66.667 C 223.390 66.667,221.500 64.697,221.500 64.327 C 221.500 64.167,221.387 63.992,221.250 63.940 C 221.104 63.884,221.000 63.634,221.000 63.339 C 221.000 63.061,220.925 62.833,220.833 62.833 C 220.742 62.833,220.667 62.538,220.667 62.177 C 220.667 61.815,220.592 61.473,220.500 61.417 C 220.408 61.360,220.333 60.835,220.333 60.250 C 220.333 59.665,220.270 59.147,220.192 59.099 C 220.114 59.050,220.009 57.769,219.959 56.251 C 219.894 54.296,219.802 53.411,219.642 53.214 C 219.449 52.976,219.452 52.956,219.667 53.076 C 219.870 53.189,219.878 53.174,219.708 52.991 C 219.573 52.846,219.500 52.233,219.500 51.250 C 219.500 50.267,219.573 49.654,219.708 49.509 C 219.878 49.326,219.870 49.311,219.667 49.424 C 219.452 49.544,219.449 49.524,219.642 49.286 C 219.802 49.089,219.894 48.204,219.959 46.249 C 220.009 44.731,220.114 43.450,220.192 43.401 C 220.270 43.353,220.333 42.831,220.333 42.240 C 220.333 41.636,220.406 41.167,220.500 41.167 C 220.592 41.167,220.667 40.829,220.667 40.417 C 220.667 40.004,220.742 39.667,220.833 39.667 C 220.925 39.667,221.000 39.439,221.000 39.161 C 221.000 38.866,221.104 38.616,221.250 38.560 C 221.387 38.508,221.500 38.333,221.500 38.173 C 221.500 37.803,223.390 35.833,223.745 35.833 C 223.891 35.833,224.054 35.721,224.106 35.583 C 224.159 35.446,224.382 35.333,224.601 35.333 C 224.821 35.333,225.000 35.258,225.000 35.167 C 225.000 35.075,225.221 35.000,225.490 35.000 C 225.760 35.000,226.027 34.925,226.083 34.833 C 226.140 34.742,226.585 34.667,227.073 34.667 C 227.651 34.667,228.030 34.581,228.163 34.421 C 228.540 33.967,239.667 33.970,239.667 34.424 " stroke="none" fill="#2c5ca4" fill-rule="evenodd"></path></g></svg>